# xmcd
#
# Track frame offsets:
#	150
#	17501
#	30720
#	46329
#	58817
#	72631
#	89559
#	104598
#	118628
#	134348
#	147822
#	164248
#	177801
#	199064
#	214975
#	231277
#	244870
#	262095
#	273389
#	290388
#
# Disc length: 4172 seconds
#
# Revision: 1
# Processed by: cddbd v1.5.2PL0 Copyright (c) Steve Scherf et al.
# Submitted via: audiograbber 1.83.01
#
DISCID=3f104a14
DTITLE=John Anderson - 40 Years and Still Swingin' CD1
DYEAR=1900
DGENRE=Country
TTITLE0=I'm Just an Old Chunk of Coal
TTITLE1=I've Got it Made
TTITLE2=Freedom Isn't Free
TTITLE3=Straight Tequilla Night
TTITLE4=Would You Catch A Fallen Star
TTITLE5=Magic Mama
TTITLE6=When I Get Down 
TTITLE7=Money In the Bank
TTITLE8=I Loved You A Thousand Ways
TTITLE9=Chicken Truck 
TTITLE10=I Will Cross Over the River 
TTITLE11=Small Farm in Kentucky
TTITLE12=Bend it Till It Breaks
TTITLE13=Somebody Slap Me
TTITLE14=Long Black Veil
TTITLE15=Goldmine
TTITLE16=Peace In the Valley
TTITLE17=She Just ed Liking Cheatin' Songs
TTITLE18=I Just Came Home to Count the Memories
TTITLE19=Seminole Wind
EXTD=
EXTT0=
EXTT1=
EXTT2=
EXTT3=
EXTT4=
EXTT5=
EXTT6=
EXTT7=
EXTT8=
EXTT9=
EXTT10=
EXTT11=
EXTT12=
EXTT13=
EXTT14=
EXTT15=
EXTT16=
EXTT17=
EXTT18=
EXTT19=
PLAYORDER=
